<svg version="1" xmlns="http://www.w3.org/2000/svg" width="682.667" height="682.667" viewBox="0 0 512.000000 512.000000"><path d="M178.5 56l-102 .5-4.7 2.3c-6.3 3.1-12.6 9.6-15.5 15.8L54 79.7l.2 178.4.3 178.4 2.5 4.8c3 5.9 9.6 12.1 15.8 15l4.7 2.2h357l5.7-2.8c3.3-1.6 7.6-4.9 10.2-7.8 8.3-9.2 7.6 7.5 7.6-191.9V78.4l-2.5-5.1c-3.1-6.1-9.9-12.7-16.3-15.6-4.7-2.2-4.9-2.2-81.7-2.2-42.3 0-122.9.2-179 .5zm15.4 77.7c6.7 7.8 8 9.8 6.9 10.8-2.7 2.6-58.9 49.5-59.3 49.5-.9 0-16.6-19.2-16.3-19.9.2-.5 8.6-7.8 18.8-16.4 10.2-8.5 23.4-19.5 29.4-24.6 5.9-5 11.1-9.1 11.5-9.1.4 0 4.4 4.3 9 9.7zm163.3 14.9c16.1 13.6 29.4 25 29.6 25.5.2.5-3.3 5.4-7.8 10.9l-8.1 10-10.2-8.6c-5.6-4.8-19.3-16.4-30.4-25.7-19.9-16.8-20.1-17.1-18.5-19.3 5.8-7.4 14.6-17.4 15.3-17.4.4 0 14 11.1 30.1 24.6zM278 153c13.8 2.2 31.3 9.4 44.1 18.1 8.5 5.7 23 19.7 29.4 28.4 15.8 21.3 22.8 42.9 22.9 70.5 0 32.2-10.4 58.1-32.8 81.9-22.7 23.9-51.6 36.2-85.1 36.2-39.4 0-71.4-15.9-95.4-47.5-15.8-20.7-23.3-43.3-23.4-70.6-.1-27.1 7.2-49.3 22.9-70.3 8-10.7 20.4-22.5 30.7-29.1 18.5-12 30.4-16.1 54.7-19 5.2-.6 24.6.3 32 1.4z"/><path d="M245 178.6c-14.9 1.9-31.9 8.7-43 17.2-24.8 18.8-37.3 43.8-37.2 74.2.1 25.7 8.1 45.8 25.6 63.9 12 12.4 22.7 19.1 39.6 24.7 8 2.6 9.5 2.8 26 2.7 16 0 18.2-.2 25.5-2.5 4.4-1.4 10.3-3.7 13-5 24.7-11.6 44-35 50.6-61.3 3.5-13.8 3.3-33.5-.4-46.9-8.6-31.2-35-57.2-65.7-64.6-8.3-2-26.9-3.3-34-2.4zm64.5 53.4l7 7-39.8 39.8-39.7 39.7-21.2-21.2-21.3-21.3 6.5-6.5c3.5-3.6 6.9-6.5 7.4-6.5.6 0 6.9 5.8 14.1 13 7.3 7.1 13.6 13 14.1 13s15.3-14.4 32.9-32c17.6-17.6 32.2-32 32.5-32 .3 0 3.7 3.2 7.5 7z"/></svg>